<?xml version="1.0" encoding="iso-8859-1"?>
<!-- Uploaded to: SVG Repo, www.svgrepo.com, Generator: SVG Repo Mixer Tools -->
<svg version="1.1" id="Layer_1" xmlns="http://www.w3.org/2000/svg" xmlns:xlink="http://www.w3.org/1999/xlink" 
	 viewBox="0 0 508 508" xml:space="preserve">
<circle style="fill:#54C0EB;" cx="254" cy="254" r="254"/>
<path style="fill:#FFFFFF;" d="M401.6,109.4H106.4c-13.8,0-25.1,11.2-25.1,25.1v239c0,13.8,11.2,25.1,25.1,25.1h295.2
	c13.8,0,25.1-11.2,25.1-25.1v-239C426.7,120.6,415.5,109.4,401.6,109.4z"/>
<path style="fill:#FF7058;" d="M426.7,170.9V133c0-13-10.6-23.6-23.6-23.6H104.9c-13,0-23.6,10.6-23.6,23.6v37.8h345.4V170.9z"/>
<g>
	<rect x="150.1" y="200.9" style="fill:#E6E9EE;" width="26.7" height="23.6"/>
	<rect x="193.3" y="200.9" style="fill:#E6E9EE;" width="26.7" height="23.6"/>
	<rect x="236.6" y="200.9" style="fill:#E6E9EE;" width="26.7" height="23.6"/>
	<rect x="106.9" y="242.1" style="fill:#E6E9EE;" width="26.7" height="23.6"/>
	<rect x="150.1" y="242.1" style="fill:#E6E9EE;" width="26.7" height="23.6"/>
	<rect x="193.3" y="242.1" style="fill:#E6E9EE;" width="26.7" height="23.6"/>
	<rect x="236.6" y="242.1" style="fill:#E6E9EE;" width="26.7" height="23.6"/>
	<rect x="106.9" y="283.4" style="fill:#E6E9EE;" width="26.7" height="23.6"/>
	<rect x="150.1" y="283.4" style="fill:#E6E9EE;" width="26.7" height="23.6"/>
	<rect x="193.3" y="283.4" style="fill:#E6E9EE;" width="26.7" height="23.6"/>
	<rect x="236.6" y="283.4" style="fill:#E6E9EE;" width="26.7" height="23.6"/>
	<rect x="106.9" y="324.7" style="fill:#E6E9EE;" width="26.7" height="23.6"/>
	<rect x="150.1" y="324.7" style="fill:#E6E9EE;" width="26.7" height="23.6"/>
	<rect x="193.3" y="324.7" style="fill:#E6E9EE;" width="26.7" height="23.6"/>
</g>
<g>
	<path style="fill:#324A5E;" d="M287.5,258.5h36v88.8h-19.1v-71.9h-16.9V258.5z"/>
	<path style="fill:#324A5E;" d="M399.1,258.5v17.2H364v14.9c2.6-0.8,5.6-1.1,9-1.1c8.6,0,15.9,2.6,22.1,7.8
		c6.2,5.2,9.3,12.1,9.3,20.9s-3.2,16-9.6,21.7s-14.3,8.6-23.7,8.6c-12,0-22.1-4.4-30.1-13.3l10.4-14.5c0.8,0.8,1.8,1.7,3.1,2.8
		c1.3,1.1,3.6,2.6,7,4.4s6.8,2.7,10.2,2.7c3.4,0,6.4-1,9-3s3.9-5,3.9-9s-1.4-7.1-4.3-9.2c-2.8-2.2-6.5-3.2-11-3.2s-9.7,1.6-15.6,4.8
		l-8.3-8.9v-43.3h53.7V258.5z"/>
</g>
<g>
	<circle style="fill:#FFFFFF;" cx="352.7" cy="139.4" r="15.2"/>
	<circle style="fill:#FFFFFF;" cx="155.3" cy="139.4" r="15.2"/>
</g>
</svg>